# xmcd CD database file
#
# Track frame offsets:
#	150
#	21725
#	40750
#	62762
#	80200
#	99237
#	117200
#	137025
#	159100
#
# Disc length: 2377 seconds
#
# Revision: 0
# Processed by: cddbd v1.5PL3 Copyright (c) Steve Scherf et al.
# Submitted via: CDex 1.51
#
DISCID=71094709
DTITLE=河合奈保子 - ９ １/２ NINE HALF
DYEAR=1900
DGENRE=JPop
TTITLE0=ホワイト・スノー・ビーチ
TTITLE1=トワイライト・クルーズ
TTITLE2=星になるまで
TTITLE3=FINDING EACH OTHER
TTITLE4=砂の記号
TTITLE5=何も言わないで
TTITLE6=風の花びら
TTITLE7=冬のカモメ
TTITLE8=白い影
EXTD=
EXTT0=
EXTT1=
EXTT2=
EXTT3=
EXTT4=
EXTT5=
EXTT6=
EXTT7=
EXTT8=
PLAYORDER=
